<?xml version="1.0" encoding="UTF-8" standalone="no"?>
<svg
   viewBox="0 0 4197.5137 771.54034"
   id="svg2"
   version="1.1"
   inkscape:version="1.1.2 (b8e25be833, 2022-02-05)"
   sodipodi:docname="logo.svg"
   width="4197.5137"
   height="771.54034"
   xmlns:inkscape="http://www.inkscape.org/namespaces/inkscape"
   xmlns:sodipodi="http://sodipodi.sourceforge.net/DTD/sodipodi-0.dtd"
   xmlns:xlink="http://www.w3.org/1999/xlink"
   xmlns="http://www.w3.org/2000/svg"
   xmlns:svg="http://www.w3.org/2000/svg"
   xmlns:rdf="http://www.w3.org/1999/02/22-rdf-syntax-ns#"
   xmlns:cc="http://creativecommons.org/ns#"
   xmlns:dc="http://purl.org/dc/elements/1.1/">
  <metadata
     id="metadata10">
    <rdf:RDF>
      <cc:Work
         rdf:about="">
        <dc:format>image/svg+xml</dc:format>
        <dc:type
           rdf:resource="http://purl.org/dc/dcmitype/StillImage" />
      </cc:Work>
    </rdf:RDF>
  </metadata>
  <defs
     id="defs8">
    <linearGradient
       inkscape:collect="always"
       id="linearGradient1092-8">
      <stop
         style="stop-color:#311f02;stop-opacity:1"
         offset="0"
         id="stop1088" />
      <stop
         style="stop-color:#0b2811;stop-opacity:1"
         offset="1"
         id="stop1090" />
    </linearGradient>
    <marker
       inkscape:isstock="true"
       style="overflow:visible"
       id="marker8454"
       refX="0"
       refY="0"
       orient="auto"
       inkscape:stockid="Arrow1Mend">
      <path
         inkscape:connector-curvature="0"
         transform="matrix(-0.4,0,0,-0.4,-4,0)"
         style="fill:#1b1e2e;fill-opacity:1;fill-rule:evenodd;stroke:#1b1e2e;stroke-width:1pt;stroke-opacity:1"
         d="M 0,0 5,-5 -12.5,0 5,5 Z"
         id="path8456" />
    </marker>
    <marker
       inkscape:isstock="true"
       style="overflow:visible"
       id="marker7644"
       refX="0"
       refY="0"
       orient="auto"
       inkscape:stockid="Arrow1Mend">
      <path
         inkscape:connector-curvature="0"
         transform="matrix(-0.4,0,0,-0.4,-4,0)"
         style="fill:#1b1e2e;fill-opacity:1;fill-rule:evenodd;stroke:#1b1e2e;stroke-width:1pt;stroke-opacity:1"
         d="M 0,0 5,-5 -12.5,0 5,5 Z"
         id="path7646" />
    </marker>
    <linearGradient
       inkscape:collect="always"
       xlink:href="#linearGradient1092-8"
       id="linearGradient1094"
       x1="6.136261"
       y1="411.12869"
       x2="3543.6836"
       y2="411.12869"
       gradientUnits="userSpaceOnUse"
       gradientTransform="matrix(1.1801668,0,0,1.0004368,-0.90082535,-0.00218448)" />
  </defs>
  <sodipodi:namedview
     pagecolor="#ffffff"
     bordercolor="#666666"
     borderopacity="1"
     objecttolerance="10"
     gridtolerance="10"
     guidetolerance="10"
     inkscape:pageopacity="0"
     inkscape:pageshadow="2"
     inkscape:window-width="1920"
     inkscape:window-height="1137"
     id="namedview6"
     showgrid="false"
     showguides="true"
     inkscape:guide-bbox="true"
     inkscape:zoom="0.16"
     inkscape:cx="1721.875"
     inkscape:cy="656.25"
     inkscape:window-x="1912"
     inkscape:window-y="-134"
     inkscape:window-maximized="1"
     inkscape:current-layer="svg2"
     fit-margin-top="0"
     fit-margin-left="0"
     fit-margin-right="0"
     fit-margin-bottom="0"
     inkscape:pagecheckerboard="0" />
  <rect
     style="opacity:1;fill:url(#linearGradient1094);fill-opacity:1;fill-rule:nonzero;stroke:#ffffff;stroke-width:10;stroke-linecap:butt;stroke-linejoin:miter;stroke-miterlimit:4;stroke-dasharray:none;stroke-dashoffset:0;stroke-opacity:1"
     id="rect4178"
     width="4187.5137"
     height="761.54034"
     x="5"
     y="5" />
  <g
     id="g3346"
     transform="translate(775.58095,0.16626644)">
    <path
       d="m 1562.1745,153.60391 c 0,-4.4 3.6,-8 8,-8 h 144 c 22.1,0 40,17.9 40,40 v 120 c 0,4.4 -3.6,8 -8,8 h -64 c -4.4,0 -8,3.6 -8,8 v 24 c 0,13.3 -10.7,24 -24,24 -13.3,0 -24,-10.7 -24,-24 v -24 c 0,-4.4 -3.6,-8 -8,-8 h -48 c -4.4,0 -8,-3.6 -8,-8 v -24 c 0,-4.4 3.6,-8 8,-8 h 16 c 22.1,0 40,-17.9 40,-40 0,-22.1 -17.9,-40 -40,-40 h -16 c -4.4,0 -8,-3.6 -8,-8 z m 8,-24 c -13.3,0 -24,10.7 -24,24 v 32 c 0,13.3 10.7,24 24,24 h 16 c 13.3,0 24,10.7 24,24 0,13.3 -10.7,24 -24,24 h -16 c -13.3,0 -24,10.7 -24,24 v 24 c 0,13.3 10.7,24 24,24 h 40 v 16 c 0,22.1 17.9,40 40,40 22.1,0 40,-17.9 40,-40 v -16 h 56 c 13.3,0 24,-10.7 24,-24 v -120 c 0,-30.9 -25.1,-56 -56,-56 z m -256,64 c -30.9,0 -56,25.1 -56,56 v 168 168 c 0,30.9 25.1,56 56,56 h 168 168 c 30.9,0 56,-25.1 56,-56 v -152 c 0,-13.3 -10.7,-24 -24,-24 h -56 c -13.3,0 -24,10.7 -24,24 v 16 c 0,13.3 -10.7,24 -24,24 -13.3,0 -24,-10.7 -24,-24 v -16 c 0,-13.3 -10.7,-24 -24,-24 h -40 v -192 c 0,-13.3 -10.7,-24 -24,-24 z m 160,24 v 192 h -40 c -4.4,0 -8,-3.6 -8,-8 v -16 c 0,-22.1 -17.9,-40 -40,-40 -22.1,0 -40,17.9 -40,40 v 16 c 0,4.4 -3.6,8 -8,8 h -64 v -160 c 0,-22.1 17.9,-40 40,-40 h 152 c 4.4,0 8,3.6 8,8 z m -136,208 c 13.3,0 24,-10.7 24,-24 v -16 c 0,-13.3 10.7,-24 24,-24 13.3,0 24,10.7 24,24 v 16 c 0,13.3 10.7,24 24,24 h 40 v 40 c 0,4.4 -3.6,8 -8,8 h -16 c -22.1,0 -40,17.9 -40,40 0,22.1 17.9,40 40,40 h 16 c 4.4,0 8,3.6 8,8 v 64 h -160 c -22.1,0 -40,-17.9 -40,-40 v -160 z m 152,136 c 0,-13.3 -10.7,-24 -24,-24 h -16 c -13.3,0 -24,-10.7 -24,-24 0,-13.3 10.7,-24 24,-24 h 16 c 13.3,0 24,-10.7 24,-24 v -40 h 40 c 4.4,0 8,3.6 8,8 v 16 c 0,22.1 17.9,40 40,40 22.1,0 40,-17.9 40,-40 v -16 c 0,-4.4 3.6,-8 8,-8 h 56 c 4.4,0 8,3.6 8,8 v 152 c 0,22.1 -17.9,40 -40,40 h -160 z"
       id="path4"
       style="fill:#ffffff;fill-opacity:1;stroke:#ffffff;stroke-width:5;stroke-miterlimit:4;stroke-dasharray:none;stroke-opacity:1"
       inkscape:connector-curvature="0" />
    <path
       d="m 2347.1391,301.53303 38.4179,55.03542 38.4178,-55.03542 h 37.9369 l -55.94,80.14665 61.1192,87.43379 h -38.6599 l -42.6933,-59.85497 -42.1509,59.85671 h -37.6947 l 60.2154,-85.92841 -56.3614,-81.65377 z m 248.6928,167.58218 -28.8441,-49.37913 c -2.0054,0.17394 -4.016,0.17394 -6.0199,0 h -37.4561 v 49.37913 h -32.1523 V 301.53132 h 69.6084 c 43.1761,0 67.8045,20.77536 67.8045,57.68789 0,26.37382 -11.6818,45.22131 -33.1793,54.19544 l 36.733,55.70056 h -36.4925 z m -72.2584,-77.74037 h 37.6349 c 24.0863,0 37.2123,-10.23652 37.2123,-31.31389 0,-21.07404 -13.3665,-30.64695 -37.2123,-30.64695 h -37.6966 v 62.022 h 0.052 z m 253.9912,42.15162 h -81.7745 l -14.8124,35.58875 h -33.058 l 73.4626,-167.58389 H 2754.5 l 72.3811,167.58389 h -34.3827 z m -11.4428,-27.57885 -29.1445,-70.69423 -30.1076,70.51259 59.2539,0.17365 z m 132.4758,7.94724 v 55.21862 h -31.9753 v -53.65228 l -62.3811,-113.92816 h 32.4543 l 45.5239,78.76181 44.8605,-78.76181 h 32.1559 l -60.6382,112.36362 z"
       id="path12"
       inkscape:connector-curvature="0"
       style="fill:#ffffff;fill-opacity:1" />
    <g
       id="g4316"
       transform="matrix(4.1702366,0,0,4.1702366,2249.6626,-1063.285)">
      <path
         style="opacity:0.5;fill:#31b34b"
         inkscape:connector-curvature="0"
         id="path6"
         d="m 4.2073672,347.50865 -28.8786552,7.21936 -14.45969,54.09504 z" />
      <path
         style="fill:#31b34b"
         inkscape:connector-curvature="0"
         id="path10"
         d="m -53.5912,325.78738 v 36.20214 l 43.338343,-75.94128 z" />
      <path
         inkscape:connector-curvature="0"
         id="path4146"
         d="m -32.93285,325.78556 -20.658351,36.20215 v 0.0845 L 4.2120791,347.50625 h 0.094101 L -10.247756,325.79941 h -22.685253 z"
         style="opacity:0.8;fill:#31b34b" />
    </g>
    <g
       id="g931"
       transform="matrix(9.7981422,0,0,9.7981422,-377.82583,35.703215)">
      <g
         id="color">
        <path
           fill="#f4aa41"
           stroke="none"
           d="m 23.5,14.5855 -4.5,1.75 -7.25,8.5 -4.5,10.75 2,5.25 c 1.2554,3.7911 3.5231,7.1832 7.25,10 L 19,47.5022 c 0,0 3.8218,7.7098 10.7384,8.9598 0,0 10.2616,1.936 15.5949,-0.8765 3.4203,-1.8037 4.4167,-4.4167 4.4167,-4.4167 l 3.4167,-3.4167 1.5833,2.3333 2.0833,-0.0833 5.4167,-7.25 1.75,-5.4166 -0.1667,-4.5 -2.3333,-5.5 -4.8333,-7.4167 c 0,0 -2.6667,-4.9167 -8.1667,-3.9167 0,0 -6.5,-4.8333 -11.8333,-4.0833 -5.3333,0.75 -4.5834,-1.25 -13.1667,2.6667 z"
           id="path877" />
        <polygon
           fill="#ea5a47"
           stroke="none"
           points="39.9167,50.0855 36,47.2521 32.9167,49.6688 30.4167,49.6688 30.3333,53.5021 31.0833,57.0021 32.1667,58.9188 35,60.4188 39.5833,59.8355 41.1667,58.0855 42.1667,53.8355 41.9167,49.8355 "
           id="polygon879" />
        <polygon
           fill="#3f3f3f"
           stroke="none"
           points="33.0833,41.9188 34.3333,42.4188 38.6667,42.5855 41.5833,40.3355 39.8333,37.0855 32.5,36.9188 30.9167,40.6688 "
           id="polygon881" />
      </g>
      <g
         id="hair" />
      <g
         id="skin" />
      <g
         id="skin-shadow" />
      <g
         id="line">
        <path
           fill="#000000"
           stroke="none"
           d="m 29.5059,30.1088 c 0,0 -1.8051,1.2424 -2.7484,0.6679 -0.9434,-0.5745 -1.2424,-1.8051 -0.6679,-2.7484 0.5745,-0.9433 1.805,-1.2424 2.7484,-0.6679 0.9434,0.5745 0.6679,2.7484 0.6679,2.7484 z"
           id="path887" />
        <path
           fill="none"
           stroke="#000000"
           stroke-linecap="round"
           stroke-linejoin="round"
           stroke-miterlimit="10"
           stroke-width="2"
           d="m 33.1089,37.006 h 6.1457 c 0.4011,0 0.7634,0.2397 0.9203,0.6089 l 1.1579,2.7245 -2.1792,1.1456 c -0.6156,0.3236 -1.3654,-0.0645 -1.4567,-0.754"
           id="path889" />
        <path
           fill="none"
           stroke="#000000"
           stroke-linecap="round"
           stroke-linejoin="round"
           stroke-miterlimit="10"
           stroke-width="2"
           d="m 34.7606,40.763 c -0.1132,0.6268 -0.7757,0.9895 -1.3647,0.7471 l -2.3132,-0.952 1.0899,-2.9035 c 0.1465,-0.3901 0.5195,-0.6486 0.9362,-0.6486"
           id="path891" />
        <path
           fill="none"
           stroke="#000000"
           stroke-linecap="round"
           stroke-linejoin="round"
           stroke-miterlimit="10"
           stroke-width="2"
           d="m 30.4364,50.0268 c 0,0 -0.7187,8.7934 3.0072,9.9375 2.6459,0.8125 5.1497,0.5324 6.0625,-0.25 0.875,-0.75 2.6323,-4.4741 1.8267,-9.6875"
           id="path893" />
        <path
           fill="#000000"
           stroke="none"
           d="m 44.2636,30.1088 c 0,0 1.805,1.2424 2.7484,0.6679 0.9434,-0.5745 1.2424,-1.8051 0.6679,-2.7484 -0.5745,-0.9434 -1.805,-1.2424 -2.7484,-0.6679 -0.9434,0.5745 -0.6679,2.7484 -0.6679,2.7484 z"
           id="path895" />
        <path
           fill="none"
           stroke="#000000"
           stroke-linecap="round"
           stroke-linejoin="round"
           stroke-miterlimit="10"
           stroke-width="2"
           d="m 25.6245,42.8393 c -0.475,3.6024 2.2343,5.7505 4.2847,6.8414 1.1968,0.6367 2.6508,0.5182 3.7176,-0.3181 l 2.581,-2.0233 2.581,2.0233 c 1.0669,0.8363 2.5209,0.9548 3.7176,0.3181 2.0504,-1.0909 4.7597,-3.239 4.2847,-6.8414"
           id="path897" />
        <path
           fill="none"
           stroke="#000000"
           stroke-linecap="round"
           stroke-linejoin="round"
           stroke-miterlimit="10"
           stroke-width="2"
           d="m 19.9509,28.3572 c -2.3166,5.1597 -0.5084,13.0249 0.119,15.3759 0.122,0.4571 0.0755,0.9355 -0.1271,1.3631 l -1.9874,4.1937 c -0.623,1.3146 -2.3934,1.5533 -3.331,0.4409 C 11.4323,45.9437 6.066,38.3409 8.0758,33.0448 15.1383,14.4344 23.9435,14.9019 23.9435,14.9019 c 2.8453,-1.9336 13.1042,-6.9375 24.8125,0.875 0,0 8.6323,-1.7175 14.9375,16.9375 1.8036,5.3362 -3.4297,12.8668 -6.5506,16.6442 -0.9312,1.127 -2.7162,0.8939 -3.3423,-0.4272 l -1.9741,-4.1656 c -0.2026,-0.4275 -0.2491,-0.906 -0.1271,-1.3631 0.6275,-2.3509 2.4356,-10.2161 0.119,-15.3759"
           id="path899" />
        <path
           fill="none"
           stroke="#000000"
           stroke-linecap="round"
           stroke-linejoin="round"
           stroke-miterlimit="10"
           stroke-width="2"
           d="m 52.6309,46.4628 c 0,0 -3.0781,6.7216 -7.8049,8.2712"
           id="path901" />
        <path
           fill="none"
           stroke="#000000"
           stroke-linecap="round"
           stroke-linejoin="round"
           stroke-miterlimit="10"
           stroke-width="2"
           d="m 19.437,46.969 c 0,0 3.0781,6.0823 7.8049,7.632"
           id="path903" />
        <line
           x1="36.207802"
           x2="36.207802"
           y1="47.339298"
           y2="44.309299"
           fill="none"
           stroke="#000000"
           stroke-linecap="round"
           stroke-linejoin="round"
           stroke-miterlimit="10"
           stroke-width="2"
           id="line905" />
      </g>
    </g>
    <path
       style="fill:#ffffff;stroke-width:3.32494"
       d="m 609.31558,466.38691 c -17.30153,-7.53356 -21.3493,-21.39119 -21.3493,-73.0893 v -45.21542 h 13.29975 13.29975 v 42.48439 c 0,46.10602 2.63943,54.70184 17.97885,58.55179 4.48755,1.12634 12.07595,0.55868 16.86311,-1.26137 13.69621,-5.2073 18.35711,-21.22695 18.35711,-63.0937 v -36.68111 h 13.29975 13.29975 v 59.84891 59.84891 H 681.0646 c -12.201,0 -13.29975,-0.73459 -13.29975,-8.89193 v -8.89193 l -7.48116,6.81402 c -16.41173,14.94815 -31.93401,17.86473 -50.96811,9.57674 z m 284.44533,-2.76307 c -24.84164,-12.54957 -36.25253,-36.71084 -31.6941,-67.10862 4.41525,-29.44263 24.408,-47.46486 56.30707,-50.75713 20.70523,-2.137 42.58415,6.31435 52.72625,20.36697 14.92198,20.67548 15.6418,57.73221 1.53394,78.96806 -9.2169,13.87368 -32.78745,26.01188 -50.51128,26.01188 -7.45431,0 -20.21716,-3.36654 -28.36188,-7.48116 z m 52.14294,-24.1612 c 14.02456,-15.42839 12.86659,-52.83646 -2.05357,-66.33896 -8.55333,-7.74063 -29.79842,-8.19342 -40.97055,-0.87313 -14.9671,9.80681 -19.38982,42.90189 -8.462,63.32066 4.63384,8.65862 22.541,15.739 34.3549,13.58385 5.48614,-1.00081 13.19521,-5.36237 17.13122,-9.69242 z M 358.54537,385.00672 v -83.47368 l 32.41817,0.0189 c 39.74475,0.0229 54.39785,3.81926 65.45386,16.95855 14.60925,17.36209 8.88573,43.31765 -12.41624,56.30619 -9.86143,6.01285 -10.06973,6.49134 -2.83102,6.50287 4.44086,0.007 12.69332,4.89211 19.1184,11.31721 9.22408,9.22405 11.3048,13.84427 11.3048,25.10219 0,18.26194 -7.05353,31.05946 -22.36274,40.57367 -10.91579,6.78373 -17.63406,7.95304 -51.61719,8.98346 l -39.06804,1.18468 z m 73.65748,55.9015 c 8.28017,-4.43143 13.37761,-17.84477 10.75401,-28.29801 -3.15426,-12.56759 -13.77198,-17.97886 -35.27721,-17.97886 h -19.20982 v 27.05728 27.05735 l 18.63681,-2.19042 c 10.25025,-1.20472 21.54354,-3.74601 25.09621,-5.64734 z m -5.94461,-76.44262 c 6.35512,-4.99895 8.76076,-9.95527 8.76076,-18.04968 0,-16.18348 -7.15486,-21.60831 -28.49949,-21.60831 h -18.04968 v 23.27458 23.27458 h 14.51384 c 9.64864,0 17.45052,-2.31001 23.27457,-6.89117 z m 75.25956,43.4655 v -59.84891 h 13.29975 c 12.45899,0 13.29975,0.60954 13.29975,9.64231 v 9.64237 l 11.53548,-11.53548 c 8.65929,-8.65929 13.84069,-11.27073 20.7809,-10.47355 7.73167,0.88804 9.41601,2.83119 10.28732,11.86794 0.97485,10.11114 0.37287,10.80607 -9.36218,10.80607 -26.07886,0 -33.24152,13.57663 -33.24152,63.00872 v 36.73944 H 514.81755 501.5178 Z m 226.09595,0 v -59.84891 h 13.29975 c 11.96979,0 13.29975,0.83125 13.29975,8.31234 0,9.12692 4.79944,11.02859 8.98002,3.55816 3.8799,-6.93293 21.16463,-15.1513 31.91567,-15.17498 14.40052,-0.0317 28.95787,9.21353 34.17744,21.70571 3.29403,7.88369 4.72544,24.93909 4.72544,56.30315 v 44.99344 h -13.29975 -13.29975 v -42.85583 c 0,-36.69472 -0.88156,-43.94453 -6.13176,-50.42824 -8.69531,-10.73829 -24.96473,-10.12787 -36.46277,1.36794 -8.59387,8.59232 -8.9877,10.55564 -10.11519,50.42824 l -1.17308,41.48789 H 740.5716 727.61375 Z"
       id="path1291" />
  </g>
</svg>
